<svg width="529" height="545" viewBox="0 0 529 545" fill="none" xmlns="http://www.w3.org/2000/svg">
<path d="M264.5 272.496L264.5 272.499L264.502 272.497L264.501 272.5L264.502 272.5L264.5 272.5L264.5 272.503L264.5 272.501L264.498 272.503L264.499 272.501L264.497 272.501L264.499 272.5L264.499 272.498L264.499 272.499L264.5 272.496Z" fill="#F9F9F9"/>
<path d="M280.471 0.468603L264.5 272.5M264.5 272.5L248.529 544.532M264.5 272.5L411.683 501.978M264.5 272.5L117.317 43.0221M264.5 272.5L10.3816 173.228M264.5 272.5L518.619 371.772M264.5 272.5L528.489 203.647M264.5 272.5L0.510833 341.353M264.5 272.5L91.475 483.178M264.5 272.5L437.525 61.8219M342.363 68.3959L264.499 272.5M264.499 272.5L186.635 476.603M264.499 272.5L321.637 483.349M264.499 272.5L207.361 61.6499M264.499 272.5L94.1843 135.441M264.499 272.5L434.814 409.558M264.499 272.5L482.936 283.415M264.499 272.5L46.0618 261.584M264.499 272.5L81.375 391.896M264.499 272.5L447.623 153.103" stroke="#474545" stroke-width="2" stroke-linejoin="round"/>
</svg>
